<svg width="300" height="300" viewBox="0 0 300 300" fill="none" xmlns="http://www.w3.org/2000/svg">
<g clip-path="url(#clip0_9_135)">
<path d="M150 300C232.843 300 300 232.843 300 150C300 67.1573 232.843 0 150 0C67.1573 0 0 67.1573 0 150C0 232.843 67.1573 300 150 300Z" fill="#FD993D"/>
<path d="M150 237.931C198.563 237.931 237.931 198.563 237.931 150C237.931 101.437 198.563 62.0689 150 62.0689C101.437 62.0689 62.069 101.437 62.069 150C62.069 198.563 101.437 237.931 150 237.931Z" fill="#EFF2FA"/>
<path d="M150 51.7243C204.276 51.7243 248.276 95.7241 248.276 150C248.276 204.276 204.276 248.276 150 248.276C95.724 248.276 51.7242 204.276 51.7242 150C51.7242 95.7241 95.724 51.7243 150 51.7243ZM150 41.3796C90.1061 41.3796 41.3795 90.1062 41.3795 150C41.3795 209.894 90.1061 258.621 150 258.621C209.894 258.621 258.621 209.894 258.621 150C258.621 90.1062 209.894 41.3796 150 41.3796Z" fill="#B95D08"/>
<path d="M150 0C141.176 0 132.544 0.805664 124.138 2.26758V26.1182C124.138 30.0451 127.613 33.1131 131.492 32.4984C137.524 31.5422 143.703 31.0348 150 31.0348C156.297 31.0348 162.476 31.5422 168.508 32.4984C172.387 33.1131 175.862 30.0457 175.862 26.1182V2.26758C167.456 0.805664 158.824 0 150 0Z" fill="#EFF2FA"/>
<path d="M124.138 273.882V297.733C132.544 299.194 141.176 300 150 300C158.824 300 167.456 299.194 175.862 297.733V273.882C175.862 269.955 172.387 266.887 168.508 267.502C162.476 268.458 156.297 268.965 150 268.965C143.703 268.965 137.524 268.458 131.492 267.502C127.613 266.887 124.138 269.955 124.138 273.882Z" fill="#EFF2FA"/>
<path d="M300 150C300 141.176 299.194 132.544 297.732 124.138H273.882C269.955 124.138 266.887 127.613 267.502 131.492C268.458 137.524 268.965 143.703 268.965 150C268.965 156.297 268.458 162.476 267.502 168.508C266.887 172.387 269.954 175.862 273.882 175.862H297.732C299.194 167.456 300 158.824 300 150Z" fill="#EFF2FA"/>
<path d="M26.1182 124.138H2.26758C0.805664 132.544 0 141.176 0 150C0 158.824 0.805664 167.456 2.26758 175.862H26.1182C30.0451 175.862 33.1131 172.387 32.4984 168.508C31.5422 162.476 31.0348 156.297 31.0348 150C31.0348 143.703 31.5422 137.524 32.4984 131.492C33.1131 127.613 30.0451 124.138 26.1182 124.138Z" fill="#EFF2FA"/>
<path d="M256.066 43.9337C249.827 37.6941 243.154 32.1605 236.176 27.2497L219.311 44.1148C216.534 46.8915 216.822 51.5187 219.999 53.8261C224.941 57.415 229.668 61.4257 234.121 65.8783C238.574 70.3308 242.585 75.0587 246.173 80.0005C248.481 83.1775 253.107 83.4658 255.885 80.689L272.75 63.824C267.839 56.8466 262.306 50.174 256.066 43.9337Z" fill="#EFF2FA"/>
<path d="M44.1145 219.311L27.2495 236.176C32.1603 243.153 37.6938 249.826 43.9335 256.066C50.1731 262.306 56.8464 267.839 63.8237 272.75L80.6888 255.885C83.4655 253.108 83.1772 248.481 80.0003 246.174C75.0585 242.585 70.3311 238.574 65.878 234.121C61.4255 229.669 57.4147 224.941 53.8259 219.999C51.5185 216.822 46.8919 216.533 44.1145 219.311Z" fill="#EFF2FA"/>
<path d="M256.066 256.066C262.306 249.827 267.84 243.153 272.75 236.176L255.885 219.31C253.108 216.534 248.481 216.822 246.173 219.999C242.585 224.941 238.574 229.668 234.121 234.121C229.669 238.574 224.941 242.584 219.999 246.173C216.822 248.481 216.534 253.107 219.311 255.885L236.176 272.75C243.154 267.839 249.826 262.306 256.066 256.066Z" fill="#EFF2FA"/>
<path d="M80.6895 44.1148L63.8244 27.2503C56.8465 32.1611 50.1739 37.6941 43.9336 43.9337C37.6934 50.1734 32.1604 56.8466 27.2502 63.824L44.1147 80.689C46.8914 83.4658 51.5186 83.1775 53.826 80.0005C57.4149 75.0587 61.4256 70.3314 65.8781 65.8783C70.3307 61.4257 75.0586 57.415 80.0004 53.8261C83.1785 51.5187 83.4668 46.8921 80.6895 44.1148Z" fill="#EFF2FA"/>
<path d="M30.5302 207.246C34.8151 207.246 38.2886 203.772 38.2886 199.487C38.2886 195.202 34.8151 191.729 30.5302 191.729C26.2454 191.729 22.7719 195.202 22.7719 199.487C22.7719 203.772 26.2454 207.246 30.5302 207.246Z" fill="#EFF2FA"/>
<path d="M269.47 108.271C273.755 108.271 277.228 104.798 277.228 100.513C277.228 96.2279 273.755 92.7543 269.47 92.7543C265.185 92.7543 261.711 96.2279 261.711 100.513C261.711 104.798 265.185 108.271 269.47 108.271Z" fill="#EFF2FA"/>
<path d="M100.513 38.2886C104.798 38.2886 108.271 34.815 108.271 30.5302C108.271 26.2453 104.798 22.7718 100.513 22.7718C96.2281 22.7718 92.7545 26.2453 92.7545 30.5302C92.7545 34.815 96.2281 38.2886 100.513 38.2886Z" fill="#EFF2FA"/>
<path d="M199.487 277.228C203.772 277.228 207.245 273.755 207.245 269.47C207.245 265.185 203.772 261.711 199.487 261.711C195.202 261.711 191.729 265.185 191.729 269.47C191.729 273.755 195.202 277.228 199.487 277.228Z" fill="#EFF2FA"/>
<path d="M30.5302 108.271C34.8151 108.271 38.2886 104.798 38.2886 100.513C38.2886 96.2279 34.8151 92.7543 30.5302 92.7543C26.2454 92.7543 22.7719 96.2279 22.7719 100.513C22.7719 104.798 26.2454 108.271 30.5302 108.271Z" fill="#EFF2FA"/>
<path d="M269.47 207.246C273.755 207.246 277.228 203.772 277.228 199.487C277.228 195.202 273.755 191.729 269.47 191.729C265.185 191.729 261.711 195.202 261.711 199.487C261.711 203.772 265.185 207.246 269.47 207.246Z" fill="#EFF2FA"/>
<path d="M199.487 38.2886C203.772 38.2886 207.245 34.815 207.245 30.5302C207.245 26.2453 203.772 22.7718 199.487 22.7718C195.202 22.7718 191.729 26.2453 191.729 30.5302C191.729 34.815 195.202 38.2886 199.487 38.2886Z" fill="#EFF2FA"/>
<path d="M100.513 277.228C104.798 277.228 108.271 273.755 108.271 269.47C108.271 265.185 104.798 261.711 100.513 261.711C96.2281 261.711 92.7545 265.185 92.7545 269.47C92.7545 273.755 96.2281 277.228 100.513 277.228Z" fill="#EFF2FA"/>
<path d="M236.789 84.9609L227.818 90.1406C233.068 96.9551 237.492 104.43 240.826 112.494L249.843 107.288C246.406 99.2848 241.958 91.8393 236.789 84.9609Z" fill="#EFF2FA"/>
<path d="M187.507 59.1738C195.57 62.5072 203.046 66.9316 209.861 72.1816L215.04 63.2103C208.162 58.0418 200.717 53.5933 192.714 50.1568L187.507 59.1738Z" fill="#EFF2FA"/>
<path d="M137.069 42.2233V52.6724C141.311 52.1134 145.605 51.7243 150 51.7243C154.394 51.7243 158.689 52.1128 162.931 52.6718V42.2233C158.682 41.7159 154.383 41.3796 150 41.3796C145.617 41.3796 141.317 41.7153 137.069 42.2233Z" fill="#EFF2FA"/>
<path d="M248.276 150C248.276 154.394 247.887 158.689 247.328 162.931H257.777C258.284 158.682 258.621 154.383 258.621 150C258.621 145.617 258.284 141.317 257.777 137.069H247.328C247.887 141.311 248.276 145.605 248.276 150Z" fill="#EFF2FA"/>
<path d="M51.7242 150C51.7242 145.605 52.1127 141.311 52.6717 137.069H42.2233C41.7158 141.317 41.3795 145.617 41.3795 150C41.3795 154.383 41.7164 158.682 42.2233 162.931H52.6717C52.1127 158.689 51.7242 154.394 51.7242 150Z" fill="#EFF2FA"/>
<path d="M90.1394 72.1823C96.9539 66.9323 104.429 62.5079 112.493 59.1745L107.287 50.1575C99.2842 53.5946 91.8386 58.0431 84.9603 63.211L90.1394 72.1823Z" fill="#EFF2FA"/>
<path d="M249.843 192.713L240.826 187.507C237.493 195.57 233.068 203.044 227.818 209.859L236.789 215.039C241.958 208.161 246.406 200.715 249.843 192.713Z" fill="#EFF2FA"/>
<path d="M162.931 257.777V247.328C158.689 247.887 154.394 248.275 150 248.275C145.605 248.275 141.311 247.887 137.069 247.328V257.777C141.317 258.284 145.617 258.621 150 258.621C154.383 258.621 158.682 258.284 162.931 257.777Z" fill="#EFF2FA"/>
<path d="M209.86 227.818C203.046 233.068 195.57 237.492 187.506 240.826L192.713 249.843C200.715 246.406 208.161 241.957 215.039 236.789L209.86 227.818Z" fill="#EFF2FA"/>
<path d="M112.493 240.826C104.43 237.492 96.9546 233.068 90.1395 227.818L84.9598 236.789C91.8387 241.957 99.2837 246.406 107.286 249.843L112.493 240.826Z" fill="#EFF2FA"/>
<path d="M72.1815 209.86C66.9315 203.045 62.5077 195.571 59.1737 187.508L50.1567 192.714C53.5933 200.716 58.0423 208.161 63.2103 215.04L72.1815 209.86Z" fill="#EFF2FA"/>
<path d="M50.1567 107.287L59.1737 112.493C62.5071 104.43 66.9315 96.9544 72.1815 90.1393L63.2103 84.9596C58.0423 91.8391 53.5938 99.2846 50.1567 107.287Z" fill="#EFF2FA"/>
</g>
<defs>
<clipPath id="clip0_9_135">
<rect width="300" height="300" fill="white"/>
</clipPath>
</defs>
</svg>
